<svg xmlns="http://www.w3.org/2000/svg" width="480" height="168" viewBox="0 0 480 168" role="img" aria-label="most used languages">
<rect width="480" height="168" rx="6" fill="#07070a"/>
<text x="20" y="24" font-family="ui-monospace,SFMono-Regular,Consolas,monospace" font-size="13" fill="#e27a52" font-weight="600">Most used languages</text>
<rect x="20" y="38" width="440" height="10" rx="5" fill="#1f1d1a"/>
<clipPath id="bar"><rect x="20" y="38" width="440" height="10" rx="5"/></clipPath>
<g clip-path="url(#bar)">
<rect x="20.00" y="38" width="224.79" height="10" fill="#3178c6"/>
<rect x="244.79" y="38" width="172.46" height="10" fill="#3572A5"/>
<rect x="417.25" y="38" width="17.17" height="10" fill="#563d7c"/>
<rect x="434.43" y="38" width="12.39" height="10" fill="#f1e05a"/>
<rect x="446.81" y="38" width="6.96" height="10" fill="#fcb32c"/>
<rect x="453.77" y="38" width="2.74" height="10" fill="#e34c26"/>
<rect x="456.51" y="38" width="2.06" height="10" fill="#00ADD8"/>
<rect x="458.57" y="38" width="0.85" height="10" fill="#384d54"/>
<rect x="459.42" y="38" width="0.58" height="10" fill="#928d84"/>
</g>
<circle cx="24.0" cy="68.0" r="4" fill="#3178c6"/>
<text x="34.0" y="72.0" font-family="ui-monospace,SFMono-Regular,Consolas,monospace" font-size="12" fill="#ece7dc">TypeScript <tspan fill="#a8a49b">51.1%</tspan></text>
<circle cx="244.0" cy="68.0" r="4" fill="#3572A5"/>
<text x="254.0" y="72.0" font-family="ui-monospace,SFMono-Regular,Consolas,monospace" font-size="12" fill="#ece7dc">Python <tspan fill="#a8a49b">39.2%</tspan></text>
<circle cx="24.0" cy="86.0" r="4" fill="#563d7c"/>
<text x="34.0" y="90.0" font-family="ui-monospace,SFMono-Regular,Consolas,monospace" font-size="12" fill="#ece7dc">CSS <tspan fill="#a8a49b">3.9%</tspan></text>
<circle cx="244.0" cy="86.0" r="4" fill="#f1e05a"/>
<text x="254.0" y="90.0" font-family="ui-monospace,SFMono-Regular,Consolas,monospace" font-size="12" fill="#ece7dc">JavaScript <tspan fill="#a8a49b">2.8%</tspan></text>
<circle cx="24.0" cy="104.0" r="4" fill="#fcb32c"/>
<text x="34.0" y="108.0" font-family="ui-monospace,SFMono-Regular,Consolas,monospace" font-size="12" fill="#ece7dc">MDX <tspan fill="#a8a49b">1.6%</tspan></text>
<circle cx="244.0" cy="104.0" r="4" fill="#e34c26"/>
<text x="254.0" y="108.0" font-family="ui-monospace,SFMono-Regular,Consolas,monospace" font-size="12" fill="#ece7dc">HTML <tspan fill="#a8a49b">0.6%</tspan></text>
<circle cx="24.0" cy="122.0" r="4" fill="#00ADD8"/>
<text x="34.0" y="126.0" font-family="ui-monospace,SFMono-Regular,Consolas,monospace" font-size="12" fill="#ece7dc">Go <tspan fill="#a8a49b">0.5%</tspan></text>
<circle cx="244.0" cy="122.0" r="4" fill="#384d54"/>
<text x="254.0" y="126.0" font-family="ui-monospace,SFMono-Regular,Consolas,monospace" font-size="12" fill="#ece7dc">Dockerfile <tspan fill="#a8a49b">0.2%</tspan></text>
<circle cx="24.0" cy="140.0" r="4" fill="#928d84"/>
<text x="34.0" y="144.0" font-family="ui-monospace,SFMono-Regular,Consolas,monospace" font-size="12" fill="#ece7dc">Other <tspan fill="#a8a49b">0.1%</tspan></text>
</svg>